{"title":"LE CHIHUAHUA DE BEVERLEY HILLS-[FRENCH]-H.264-PAR KIDZCORNER","uid":5060232,"size":944356112,"categoryP":"video","categoryS":"movies","magnet":"?xt=urn:btih:925a4a2b3322f9d4155fe31c84c8488a6dad367a&amp;dn=LE+CHIHUAHUA+DE+BEVERLEY+HILLS-%5BFRENCH%5D-H.264-PAR+KIDZCORNER&amp;tr=udp%3A%2F%2Ftracker.openbittorrent.com%3A80&amp;tr=udp%3A%2F%2Fopen.demonii.com%3A1337&amp;tr=udp%3A%2F%2Ftracker.coppersurfer.tk%3A6969&amp;tr=udp%3A%2F%2Fexodus.desync.com%3A6969","seeders":0,"leechers":1,"uploader":"alanwatson","files":5,"time":1250679587,"description":"ChloÃƒÂ©, une petite chienne Chihuahua de Beverly Hills toute pomponnÃƒÂ©e se perd accidentellement dans les rues de Mexico. Pas le moindre spa, pas la moindre boutique de luxe ÃƒÂ  l'horizon... Seule pour la premiÃƒÂ¨re fois de sa vie de petite chienne gÃƒÂ¢tÃƒÂ©e, ChloÃƒÂ© va heureusement trouver des amis inattendus pour l'aider : un berger allemand qui a grandi dans la rue, Delgado et un chiot ÃƒÂ©namourÃƒÂ©, Papi. Tous deux lui tendront une patte secourable pour l'aider ÃƒÂ  dÃƒÂ©couvrir en elle-mÃƒÂªme la force de retrouver sa maison.\n\nFormat : MPEG-4\nFormat profile : Base Media / Version 2\nCodec ID : mp42\nFile size : 899 MiB\nDuration : 1h 27mn\nOverall bit rate : 1 433 Kbps\nEncoded date : UTC 2009-08-17 10:51:33\nTagged date : UTC 2009-08-17 14:36:20\nWriting application : HandBrake 0.9.3 2008112300\n\nVideo\nID : 1\nFormat : AVC\nFormat/Info : Advanced Video Codec\nFormat profile : &lt;a class=&quot;__cf_email__&quot; href=&quot;/cdn-cgi/l/email-protection&quot; data-cfemail=&quot;692408000729255d4759&quot;&gt;[email&amp;#160;protected]&lt;/a&gt;&lt;script cf-hash='f9e31' type=&quot;text/javascript&quot;&gt;\n/* &lt;![CDATA[ */!function(){try{var t=&quot;currentScript&quot;in document?document.currentScript:function(){for(var t=document.getElementsByTagName(&quot;script&quot;),e=t.length;e--;)if(t[e].getAttribute(&quot;cf-hash&quot;))return t[e]}();if(t&amp;&amp;t.previousSibling){var e,r,n,i,c=t.previousSibling,a=c.getAttribute(&quot;data-cfemail&quot;);if(a){for(e=&quot;&quot;,r=parseInt(a.substr(0,2),16),n=2;a.length-n;n+=2)i=parseInt(a.substr(n,2),16)^r,e+=String.fromCharCode(i);e=document.createTextNode(e),c.parentNode.replaceChild(e,c)}}}catch(u){}}();/* ]]&gt; */&lt;/script&gt;\nFormat settings, CABAC : Yes\nFormat settings, ReFrames : 3 frames\nCodec ID : avc1\nCodec ID/Info : Advanced Video Coding\nDuration : 1h 27mn\nBit rate mode : Variable\nBit rate : 1 270 Kbps\nWidth : 720 pixels\nHeight : 428 pixels\nDisplay aspect ratio : 2.35\nFrame rate mode : Variable\nFrame rate : 25.000 fps\nMinimum frame rate : 12.500 fps\nMaximum frame rate : 25.000 fps\nResolution : 24 bits\nColorimetry : 4:2:0\nScan type : Progressive\nBits/(Pixel*Frame) : 0.165\nStream size : 797 MiB (89%)\nWriting library : x264 core 65\nAudio\nID : 2\nFormat : AAC\nFormat/Info : Advanced Audio Codec\nFormat version : Version 4\nFormat profile : LC\nFormat settings, SBR : No\nCodec ID : 40\nDuration : 1h 27mn\nBit rate mode : Variable\nBit rate : 160 Kbps\nMaximum bit rate : 204 Kbps\nChannel(s) : 2 channels\nChannel positions : L R\nSampling rate : 48.0 KHz\nResolution : 16 bits\nStream size : 100 MiB (11%)\nLanguage : French","torrent":{"xt":"urn:btih:925a4a2b3322f9d4155fe31c84c8488a6dad367a","amp;dn":"LE+CHIHUAHUA+DE+BEVERLEY+HILLS-%5BFRENCH%5D-H.264-PAR+KIDZCORNER","amp;tr":["udp%3A%2F%2Ftracker.openbittorrent.com%3A80","udp%3A%2F%2Fopen.demonii.com%3A1337","udp%3A%2F%2Ftracker.coppersurfer.tk%3A6969","udp%3A%2F%2Fexodus.desync.com%3A6969"],"infoHash":"925a4a2b3322f9d4155fe31c84c8488a6dad367a","infoHashBuffer":{"type":"Buffer","data":[146,90,74,43,51,34,249,212,21,95,227,28,132,200,72,138,109,173,54,122]},"announce":[],"urlList":[]}}